# xmcd
#
# Track frame offsets:
#	150
#	15342
#	29959
#	43821
#	60428
#	82420
#	93957
#	110146
#	131818
#	149578
#	166325
#	188042
#	205944
#	224583
#	238565
#	253117
#	270164
#	288386
#	307176
#	324626
#	339158
#
# Disc length: 4707 seconds
#
# Revision: 1
# Processed by: cddbd v1.5.2PL0 Copyright (c) Steve Scherf et al.
# Submitted via: audiograbber 1.83.01
#
DISCID=46126115
DTITLE=John Denver - The Very Best of
DYEAR=1900
DGENRE=Country
TTITLE0=Sunshine On My Shoulder
TTITLE1=Take Me Home Country Road
TTITLE2=Annie's Song
TTITLE3=Leaving On A Jet Plane
TTITLE4=My Sweet Lady
TTITLE5=Follow Me
TTITLE6=I'm Sorry
TTITLE7=Rocky Mountain High
TTITLE8=Some Days Are Diamonds, Some Days Are Stones
TTITLE9=Goodbye Again
TTITLE10=Back Home Again
TTITLE11=Heart To Heart
TTITLE12=Dreamland Express
TTITLE13=Fly Away
TTITLE14=How Can I Leave You Again
TTITLE15=Like A Sad Song
TTITLE16=Looking For Space
TTITLE17=Poems Prayers And Promises
TTITLE18=Seasons Of The Heart
TTITLE19=Shanghai Breeze
TTITLE20=What A Man Can Do
EXTD=
EXTT0=
EXTT1=
EXTT2=
EXTT3=
EXTT4=
EXTT5=
EXTT6=
EXTT7=
EXTT8=
EXTT9=
EXTT10=
EXTT11=
EXTT12=
EXTT13=
EXTT14=
EXTT15=
EXTT16=
EXTT17=
EXTT18=
EXTT19=
EXTT20=
PLAYORDER=
